<svg id="Layer_1" data-name="Layer 1" xmlns="http://www.w3.org/2000/svg" viewBox="0 0 396.85 595.28"><defs><style>.cls-1{fill:#c76c29;}.cls-2{fill:#c86e2c;}.cls-3{fill:#fff;}</style></defs><path class="cls-1" d="M340.64,134.45a37.29,37.29,0,0,1-4.39-2.28,140.9,140.9,0,0,0-40.46-14,193.47,193.47,0,0,0-37.11-3.71,176.88,176.88,0,0,0-75.56,16.92Q123.39,159.63,95,219.45a174.89,174.89,0,0,0-14.51,47,181.47,181.47,0,0,0,22.64,121.61,3.81,3.81,0,0,0,1.13,1.5,6.72,6.72,0,0,0,.14-2.11q0-43.68,0-87.36c0-2.69-.34-2.35,2.35-2.36h21.79c.41,0,.83,0,1.24,0,.67,0,1,.24,1,.93,0,.53,0,1.06,0,1.59v92.14c0,2.67-.25,2.41,2.34,2.41h140c2.72,0,2.3.09,2.34-2.24q.25-12.39.47-24.79a6.61,6.61,0,0,0,0-.89c-.06-.8.36-1.05,1.08-1,.23,0,.47,0,.7,0h24.45c.54,0,.73.28.73.77s0,.71,0,1.07q-.09,12.75-.2,25.51-.17,16.38-.35,32.77-.19,17.44-.36,34.9c0,3.3-.13,6.61-.17,9.92a2.57,2.57,0,0,0,.26,1.67c21.28-4.7,40.54-14,58.6-26.44a3.05,3.05,0,0,1-1.2,1.79,195.2,195.2,0,0,1-22.8,17.39,188.34,188.34,0,0,1-44,21.24,196,196,0,0,1-23.87,5.87,208.7,208.7,0,0,1-21.54,3.07,167,167,0,0,1-23.35.61c-5-.26-10-.57-15-1.12A189.7,189.7,0,0,1,178.1,489,198.87,198.87,0,0,1,37.49,341a191,191,0,0,1-4.1-27.64A198.62,198.62,0,0,1,180.27,105.89a199.3,199.3,0,0,1,56.25-6.51,200.09,200.09,0,0,1,28.15,3,204.44,204.44,0,0,1,23.46,5.28A172.46,172.46,0,0,1,322,122a177.89,177.89,0,0,1,17.55,11c.53.37,1,.79,1.53,1.19ZM203,418.73h-69.8c-.53,0-1.06,0-1.59,0a.74.74,0,0,0-.86.85,20.47,20.47,0,0,1,0,2.48,3.63,3.63,0,0,0,1.37,3.24,183,183,0,0,0,50,35,179.89,179.89,0,0,0,68,17.15,160.12,160.12,0,0,0,22.12-.26c1.43-.12,1.45-.1,1.48-1.53.1-3.89.19-7.79.26-11.68q.42-21.52.83-43c0-2.55.21-2.17-2.15-2.17Z"/><path class="cls-2" d="M161.59,249.75c-.86,2.76-1.59,5.11-2.31,7.46q-.76,2.44-1.49,4.91a1.11,1.11,0,0,1-1.27.92c-1.3,0-2.6,0-3.9,0s-1.42,0-1.83-1.33c-1.08-3.5-2.14-7-3.22-10.49a3.06,3.06,0,0,0-.68-1.31c0,.41-.07.82-.07,1.23,0,3.49,0,7,0,10.45,0,1.42,0,1.43-1.49,1.45-1.12,0-2.24,0-3.36,0-1.91,0-1.86.19-1.86-1.79V244.41c0-.88,0-1.77,0-2.65s.19-1.18,1.07-1.17c2.78,0,5.55,0,8.33,0,.81,0,1.11.35,1.31,1.09,1,3.76,2.08,7.5,3.13,11.25.16.54.34,1.08.55,1.73a3,3,0,0,0,.82-1.84c1-3.58,2-7.16,3-10.74.4-1.45.41-1.46,1.9-1.47q3.72,0,7.44,0c1.5,0,1.51,0,1.52,1.6q0,9.64,0,19.31c0,1.48,0,1.49-1.42,1.51s-3,0-4.42,0-1.39,0-1.39-1.37c0-3.25,0-6.49,0-9.74A4.78,4.78,0,0,0,161.59,249.75Z"/><path class="cls-2" d="M238.35,251.73a12.38,12.38,0,0,0,.14-3.07c0-2.3,0-4.6,0-6.91,0-.8.2-1.19,1.09-1.16,1.59.06,3.19,0,4.78,0,.78,0,1,.3,1,1.05q0,10.11,0,20.2c0,1-.36,1.22-1.25,1.19-1.71,0-3.42-.07-5.13,0a1.78,1.78,0,0,1-1.91-1.16c-1.91-3.73-3.88-7.43-5.84-11.14a3,3,0,0,0-1.1-1.51c0,.71-.08,1.26-.09,1.82,0,3.49,0,7,0,10.46,0,1.48,0,1.49-1.43,1.51s-2.72,0-4.08,0-1.38,0-1.39-1.37c0-2.83,0-5.67,0-8.5,0-3.72,0-7.45,0-11.17,0-1.34,0-1.37,1.38-1.38,2.19,0,4.38,0,6.56,0a1.78,1.78,0,0,1,1.88,1.21c1.48,3,3,6,4.56,9A1.61,1.61,0,0,0,238.35,251.73Z"/><path class="cls-2" d="M193.73,251.69c0-3.24,0-6.49,0-9.74,0-1.29,0-1.34,1.25-1.33,4.13,0,8.26-.11,12.39.14a13,13,0,0,1,4.63,1.09,5,5,0,0,1,3.16,4.88c0,3.43,0,6.85,0,10.28a5,5,0,0,1-3.23,4.83,14.54,14.54,0,0,1-5.69,1.15c-3.78.08-7.56,0-11.34.06-1,0-1.19-.39-1.18-1.26C193.75,258.42,193.73,255.06,193.73,251.69Zm7.66.07c0,2.12,0,4.25,0,6.37,0,.46-.07,1,.64,1a16.8,16.8,0,0,0,3.88-.15c1.24-.3,1.58-.7,1.59-2q0-5.22,0-10.44c0-1.34-.41-1.81-1.76-2-1.11-.13-2.24-.07-3.36-.14-.78,0-1,.33-1,1.06C201.4,247.63,201.39,249.69,201.39,251.76Z"/><path class="cls-2" d="M298.27,251.75c0-3.25,0-6.49,0-9.74,0-1.36,0-1.38,1.36-1.4,1.71,0,3.42,0,5.13,0,1,0,1.2.35,1.17,1.25-.06,2.06,0,4.13,0,6.19,0,1.33,0,1.35,1.39,1.37s2.71,0,4.06,0c.76,0,1.05-.28,1-1,0-2.18,0-4.36,0-6.54,0-.92.25-1.27,1.19-1.24,1.76.06,3.54,0,5.3,0,.95,0,1.2.36,1.2,1.26,0,4.78,0,9.56,0,14.33,0,1.89,0,3.78,0,5.67,0,.94-.34,1.22-1.25,1.2-1.76-.06-3.54-.05-5.3,0-.84,0-1.15-.27-1.14-1.12,0-2.36,0-4.72,0-7.08,0-1.61,0-1.61-1.66-1.62-1.24,0-2.48,0-3.71,0-.86,0-1.14.29-1.13,1.13,0,2.41,0,4.83,0,7.25,0,1.42,0,1.44-1.48,1.45-1.65,0-3.31,0-5,0-.91,0-1.23-.29-1.22-1.22C298.3,258.47,298.27,255.11,298.27,251.75Z"/><path class="cls-2" d="M269.47,251.85c0-1.77,0-3.54,0-5.31a4.82,4.82,0,0,1,3-4.76,14.14,14.14,0,0,1,5.3-1.26,23.35,23.35,0,0,1,8.07.6,8.18,8.18,0,0,1,3,1.46c1.68,1.34,1.85,3.18,1.7,5.13,0,.46-.39.54-.76.54h-5.67c-.61,0-.84-.29-.81-.87a2,2,0,0,0,0-.35c-.09-2.19-.52-2.62-2.74-2.7a7.55,7.55,0,0,0-1.58.07c-1.49.24-1.92.72-1.93,2.23q0,5.22,0,10.45c0,1.52.45,1.95,2,2.15a8.35,8.35,0,0,0,2.64-.06c1.21-.23,1.58-.68,1.62-1.92,0-.82,0-1.65,0-2.48s-.23-1.05-1-1.06-1.67.34-2.19-.26-.14-1.59-.24-2.4.25-1.26,1.19-1.24q4.17.06,8.32,0c.93,0,1.23.33,1.21,1.24-.05,2.06,0,4.13,0,6.19a4.9,4.9,0,0,1-2.89,4.52,10.44,10.44,0,0,1-3.35,1.08,27.32,27.32,0,0,1-9.67-.18,8.25,8.25,0,0,1-2.78-1.1,4.62,4.62,0,0,1-2.44-4.22C269.51,255.51,269.47,253.68,269.47,251.85Z"/><path class="cls-1" d="M200.4,181.58c0,3.25,0,6.5,0,9.75,0,1.24,0,1.26-1.28,1.27-1.71,0-3.43,0-5.14,0-.84,0-1.13-.26-1.12-1.11,0-2.37,0-4.73,0-7.09,0-1.46,0-1.48-1.43-1.49s-2.72,0-4.07,0c-.84,0-1.15.27-1.13,1.13,0,2.36,0,4.72,0,7.08,0,1.46,0,1.47-1.42,1.48-1.66,0-3.31,0-5,0-.81,0-1.16-.2-1.16-1.09q0-10.09,0-20.19c0-.69.13-1.12,1-1.1q2.83,0,5.67,0c.7,0,.92.31.91,1,0,2.19,0,4.37,0,6.56,0,1.27,0,1.29,1.25,1.31,1.42,0,2.84,0,4.25,0,.85,0,1.15-.28,1.13-1.13,0-2.06,0-4.13,0-6.2,0-1.5,0-1.5,1.58-1.51h4.43c1.49,0,1.51,0,1.51,1.59C200.41,175.09,200.4,178.34,200.4,181.58Z"/><path class="cls-2" d="M230,181.54c0,1.71,0,3.43,0,5.14a4.87,4.87,0,0,1-3,4.78,13.85,13.85,0,0,1-4.77,1.24,24.47,24.47,0,0,1-8.78-.51,8.35,8.35,0,0,1-3-1.4,4.39,4.39,0,0,1-1.88-3.63q0-5.66,0-11.33a4.62,4.62,0,0,1,2.58-4.14,10.43,10.43,0,0,1,4.36-1.35,29.32,29.32,0,0,1,8.82.22,11,11,0,0,1,2.51.83,5,5,0,0,1,3.22,5C230,178.12,230,179.83,230,181.54Zm-7.63.08V177.2c0-2.73-.59-3.31-3.29-3.24a8.78,8.78,0,0,0-.88.1c-1.71.23-2.12.67-2.13,2.4,0,3.18,0,6.37,0,9.56,0,2.35.54,2.91,2.89,3a7.35,7.35,0,0,0,1.75-.14c1.29-.28,1.64-.73,1.65-2.08C222.39,185.05,222.37,183.33,222.37,181.62Z"/><path class="cls-2" d="M264.48,181.46c0-3.31,0-6.62,0-9.93,0-1.25,0-1.28,1.28-1.28H282.6c1.22,0,1.26,0,1.26,1.32,0,3.11.26,2.51-2.51,2.55s-5.32,0-8,0c-1.32,0-1.33,0-1.35,1.4,0,.7,0,1.41,0,2.12,0,1.4,0,1.42,1.51,1.42h6.38c1.49,0,1.52,0,1.52,1.41,0,2.88.29,2.4-2.45,2.43-2,0-3.9,0-5.85,0-.83,0-1.17.25-1.13,1.11a32.34,32.34,0,0,1,0,3.55c-.05.93.32,1.24,1.23,1.23,2.89,0,5.79,0,8.68,0l1.24,0c.25,0,.54.09.59.31a8.2,8.2,0,0,1,0,3.16c-.06.33-.45.32-.74.32H266.18c-1.86,0-1.69.08-1.69-1.76Q264.48,186.16,264.48,181.46Z"/><path class="cls-2" d="M247,170.24c3.18,0,6.36,0,9.55,0,.87,0,1.27.22,1.24,1.18-.07,3.26.32,2.65-2.53,2.71-.71,0-1.41,0-2.12,0-2.48,0-2.48,0-2.48,2.39v13.8c0,.29,0,.59,0,.88,0,1.38,0,1.4-1.33,1.41q-2.48,0-4.95,0c-1.34,0-1.36,0-1.37-1.38,0-4.84,0-9.67,0-14.51,0-3.05.41-2.53-2.63-2.58-1.18,0-2.36,0-3.54,0-.66,0-.9-.25-1-.93-.24-2.95-.25-3,2.64-3Z"/><path class="cls-1" d="M337.87,240.65h9.21c1.48,0,1.52,0,1.51,1.41,0,2.79.32,2.4-2.45,2.43-1.18,0-2.36,0-3.54,0-.83,0-1.16.27-1.14,1.12,0,2.07,0,4.13,0,6.2,0,3.3,0,6.61,0,9.91,0,1.26,0,1.28-1.27,1.29-1.71,0-3.42,0-5.13,0-.84,0-1.14-.27-1.13-1.12,0-2.53,0-5.07,0-7.61,0-2.83,0-5.66,0-8.49,0-1.27,0-1.29-1.28-1.31-1.54,0-3.07,0-4.6,0-.89,0-1.28-.23-1.25-1.2.09-3.23-.34-2.62,2.57-2.66S335,240.65,337.87,240.65Z"/><path class="cls-2" d="M291.18,181.57c0-3.31,0-6.61,0-9.92,0-1.37,0-1.39,1.35-1.4q2.47,0,4.95,0c1.32,0,1.34,0,1.34,1.41q0,7.17,0,14.34c0,.35,0,.7,0,1.06,0,1.72,0,1.73,1.73,1.73,2.71,0,5.43,0,8.14,0,1.26,0,1.3,0,1.3,1.28,0,3.09.32,2.5-2.51,2.52-4.95,0-9.91,0-14.86,0-1.43,0-1.45,0-1.45-1.48C291.18,187.94,291.18,184.75,291.18,181.57Z"/><path class="cls-2" d="M146.82,392.11a21.14,21.14,0,0,1,6.31-7.28,12.22,12.22,0,0,1,10.62-1.72,24.14,24.14,0,0,1,8.92,4.9,22.87,22.87,0,0,1,4,4C175.43,392.38,149.66,392.5,146.82,392.11Z"/><path class="cls-1" d="M185.19,251.88c0,3.25,0,6.49,0,9.73,0,1.38,0,1.4-1.33,1.41-1.65,0-3.3,0-5,0-.87,0-1.26-.2-1.26-1.17,0-6.72,0-13.44,0-20.16,0-.72.19-1.08,1-1.06,1.82,0,3.65,0,5.48,0,.89,0,1.08.37,1.07,1.16C185.17,245.16,185.19,248.52,185.19,251.88Z"/><path class="cls-1" d="M253.86,251.92c0-3.3,0-6.6,0-9.9,0-1.33,0-1.35,1.38-1.36,1.65,0,3.3,0,4.95,0,.93,0,1.21.3,1.21,1.21,0,5,0,10,0,15,0,1.71,0,3.41,0,5.12,0,.76-.28,1-1,1-1.76,0-3.53-.06-5.3,0-.94,0-1.22-.31-1.21-1.22C253.88,258.52,253.86,255.22,253.86,251.92Z"/><path class="cls-2" d="M340.64,134.45l.4-.31a8.14,8.14,0,0,1,2.37,1.8A7.1,7.1,0,0,1,340.64,134.45Z"/><path class="cls-2" d="M344.3,136.62l-.13-.07c-.16-.1-.16-.16,0-.15s.08.07.11.11S344.29,136.58,344.3,136.62Z"/><path class="cls-2" d="M361.59,445.58c0-.34.28-.44.54-.53,0,0,.12.09.11.11a.61.61,0,0,1-.6.48Z"/><polygon class="cls-2" points="363.08 444.58 363.1 444.51 363.05 444.56 363.08 444.58"/><path class="cls-2" d="M363.05,444.56l-.12.1.15-.08Z"/><path class="cls-1" d="M361.12,445.81a.42.42,0,0,1,.47-.23l.05.06c0,.24-.12.34-.34.38Z"/><path class="cls-1" d="M361.3,446c-.05.16-.2.34-.32.25-.3-.21,0-.33.14-.46Z"/><path class="cls-3" d="M203,418.73h69.63c2.36,0,2.19-.38,2.15,2.17q-.39,21.52-.83,43c-.07,3.89-.16,7.79-.26,11.68,0,1.43-.05,1.41-1.48,1.53a160.12,160.12,0,0,1-22.12.26,179.89,179.89,0,0,1-68-17.15,183,183,0,0,1-50-35,3.63,3.63,0,0,1-1.37-3.24,20.47,20.47,0,0,0,0-2.48.74.74,0,0,1,.86-.85c.53,0,1.06,0,1.59,0Z"/><path class="cls-3" d="M201.39,251.76c0-2.07,0-4.13,0-6.2,0-.73.22-1.1,1-1.06,1.12.07,2.25,0,3.36.14,1.35.16,1.75.63,1.76,2q0,5.22,0,10.44c0,1.26-.35,1.66-1.59,2a16.8,16.8,0,0,1-3.88.15c-.71,0-.64-.57-.64-1C201.38,256,201.39,253.88,201.39,251.76Z"/><path class="cls-3" d="M222.37,181.62c0,1.71,0,3.43,0,5.14,0,1.35-.36,1.8-1.65,2.08A7.35,7.35,0,0,1,219,189c-2.35,0-2.89-.61-2.89-3,0-3.19,0-6.38,0-9.56,0-1.73.42-2.17,2.13-2.4a8.78,8.78,0,0,1,.88-.1c2.7-.07,3.29.51,3.29,3.24Z"/></svg>